<svg xmlns="http://www.w3.org/2000/svg" viewBox="0 0 800 800">
  <defs>
    <linearGradient id="bg" x1="0" y1="0" x2="0" y2="1">
      <stop offset="0%" stop-color="#151922"/>
      <stop offset="100%" stop-color="#0D1017"/>
    </linearGradient>
    <clipPath id="avatarClip"><circle cx="708" cy="708" r="66"/></clipPath>
  </defs>

  <rect width="800" height="800" fill="url(#bg)"/>

  <!-- barra de abas do navegador -->
  <rect x="0" y="0" width="800" height="34" fill="#12151C"/>
  <g font-family="Arial, sans-serif" font-size="9" fill="#8B92A3">
    <rect x="8" y="6" width="118" height="22" rx="5" fill="#1B202B"/>
    <circle cx="20" cy="17" r="6" fill="#232834"/>
    <text x="32" y="20">C2S Docs</text>
    <rect x="130" y="6" width="118" height="22" rx="5" fill="#12151C"/>
    <circle cx="142" cy="17" r="6" fill="#232834"/>
    <text x="154" y="20">Vetra</text>
    <rect x="252" y="6" width="118" height="22" rx="5" fill="#12151C"/>
    <circle cx="264" cy="17" r="6" fill="#232834"/>
    <text x="276" y="20">Dashboard</text>
    <rect x="374" y="6" width="140" height="22" rx="5" fill="#12151C"/>
    <circle cx="386" cy="17" r="6" fill="#232834"/>
    <text x="398" y="20">Support Academy</text>
  </g>

  <!-- barra de endereço -->
  <rect x="0" y="34" width="800" height="30" fill="#191D26"/>
  <circle cx="20" cy="49" r="3" fill="#565D6E"/>
  <circle cx="32" cy="49" r="3" fill="#565D6E"/>
  <circle cx="44" cy="49" r="3" fill="#565D6E"/>
  <rect x="64" y="40" width="420" height="18" rx="6" fill="#0D1017"/>
  <text x="76" y="53" font-family="monospace" font-size="10" fill="#8B92A3">docs-api-leads.c2sapp.com</text>

  <!-- sidebar -->
  <rect x="0" y="64" width="190" height="736" fill="#161B23"/>
  <rect x="24" y="92" width="120" height="12" rx="4" fill="#8B92A3" opacity="0.5"/>
  <rect x="24" y="134" width="140" height="9" rx="3" fill="#565D6E"/>

  <g font-family="Arial, sans-serif" font-size="12" fill="#8B92A3">
    <text x="24" y="176">Informações Gerais</text>
    <rect x="16" y="192" width="158" height="24" rx="6" fill="#142140"/>
    <text x="24" y="208" fill="#3E7CF0" font-weight="600">Leads</text>
    <text x="24" y="240">Usuários</text>
    <text x="24" y="272">Empresas</text>
    <text x="24" y="304">Tags</text>
    <text x="24" y="336">Regras de Distribuição</text>
    <text x="24" y="368">Filas de Distribuição</text>
    <text x="24" y="400">Webhooks</text>
    <text x="24" y="432">Stand de Vendas</text>
    <text x="24" y="464">Blocklist</text>
  </g>

  <!-- conteúdo -->
  <rect x="222" y="104" width="300" height="20" rx="5" fill="#E7EAF0" opacity="0.85"/>
  <rect x="222" y="140" width="420" height="10" rx="4" fill="#565D6E"/>
  <rect x="222" y="160" width="360" height="10" rx="4" fill="#3A404D"/>

  <g>
    <rect x="222" y="210" width="540" height="60" rx="10" fill="#161B23" stroke="#232834"/>
    <rect x="242" y="230" width="46" height="20" rx="5" fill="#10261C"/>
    <text x="265" y="244" font-family="monospace" font-size="11" fill="#45C48A" text-anchor="middle" font-weight="700">GET</text>
    <rect x="304" y="232" width="150" height="10" rx="4" fill="#8B92A3"/>
  </g>
  <g>
    <rect x="222" y="286" width="540" height="60" rx="10" fill="#161B23" stroke="#232834"/>
    <rect x="242" y="306" width="46" height="20" rx="5" fill="#10261C"/>
    <text x="265" y="320" font-family="monospace" font-size="11" fill="#45C48A" text-anchor="middle" font-weight="700">GET</text>
    <rect x="304" y="308" width="190" height="10" rx="4" fill="#8B92A3"/>
  </g>
  <g>
    <rect x="222" y="362" width="540" height="60" rx="10" fill="#161B23" stroke="#232834"/>
    <rect x="242" y="382" width="54" height="20" rx="5" fill="#142140"/>
    <text x="269" y="396" font-family="monospace" font-size="11" fill="#3E7CF0" text-anchor="middle" font-weight="700">POST</text>
    <rect x="312" y="384" width="160" height="10" rx="4" fill="#8B92A3"/>
  </g>
  <rect x="222" y="438" width="540" height="60" rx="10" fill="#161B23" stroke="#232834" opacity="0.6"/>
  <rect x="222" y="514" width="540" height="60" rx="10" fill="#161B23" stroke="#232834" opacity="0.35"/>

  <!-- bolha de webcam (canto inferior direito), estilo gravação Loom -->
  <circle cx="708" cy="708" r="70" fill="#0A0D13"/>
  <circle cx="708" cy="708" r="66" fill="#1B202B"/>
  <g clip-path="url(#avatarClip)">
    <rect x="642" y="642" width="132" height="132" fill="#1B202B"/>
    <circle cx="708" cy="690" r="26" fill="#3A404D"/>
    <ellipse cx="708" cy="760" rx="42" ry="38" fill="#3A404D"/>
  </g>
  <circle cx="708" cy="708" r="66" fill="none" stroke="#3E7CF0" stroke-width="2.5"/>

  <!-- indicador de gravação -->
  <circle cx="782" cy="17" r="5" fill="#E5685E"/>
</svg>
